<?xml version="1.0" encoding="us-ascii" standalone="no"?><svg xmlns="http://www.w3.org/2000/svg" xmlns:xlink="http://www.w3.org/1999/xlink" contentStyleType="text/css" height="207px" preserveAspectRatio="none" style="width:187px;height:207px;background:#FFFFFF;" version="1.1" viewBox="0 0 187 207" width="187px" zoomAndPan="magnify"><defs/><g><!--class DishType--><g id="elem_DishType"><rect codeLine="3" fill="#F1F1F1" height="66.6211" id="DishType" rx="2.5" ry="2.5" style="stroke:#181818;stroke-width:0.5;" width="114" x="36.5" y="7"/><ellipse cx="61.4" cy="23" fill="#ADD1B2" rx="11" ry="11" style="stroke:#181818;stroke-width:1.0;"/><path d="M64.1656,18.875 Q64.3219,18.6563 64.5094,18.5469 Q64.6969,18.4375 64.9156,18.4375 Q65.2906,18.4375 65.525,18.7031 Q65.7594,18.9531 65.7594,19.5625 L65.7594,21.0156 Q65.7594,21.625 65.525,21.8906 Q65.2906,22.1563 64.9156,22.1563 Q64.5719,22.1563 64.3688,21.9531 Q64.1656,21.7656 64.0563,21.25 Q64.0094,20.8906 63.8219,20.7031 Q63.4938,20.3281 62.8844,20.1094 Q62.275,19.8906 61.65,19.8906 Q60.8844,19.8906 60.2438,20.2188 Q59.6188,20.5469 59.1188,21.2969 Q58.6344,22.0469 58.6344,23.0781 L58.6344,24.1719 Q58.6344,25.4063 59.525,26.2344 Q60.4156,27.0469 62.0094,27.0469 Q62.9469,27.0469 63.6031,26.7969 Q63.9938,26.6406 64.4156,26.2031 Q64.6813,25.9375 64.8219,25.8594 Q64.9781,25.7813 65.1813,25.7813 Q65.5094,25.7813 65.7594,26.0469 Q66.025,26.2969 66.025,26.6406 Q66.025,26.9844 65.6813,27.3906 Q65.1813,27.9688 64.3844,28.2969 Q63.3063,28.75 62.0094,28.75 Q60.4938,28.75 59.2906,28.125 Q58.3063,27.625 57.6188,26.5625 Q56.9313,25.4844 56.9313,24.2031 L56.9313,23.0469 Q56.9313,21.7188 57.5406,20.5781 Q58.1656,19.4219 59.2594,18.8125 Q60.3531,18.1875 61.5875,18.1875 Q62.3219,18.1875 62.9625,18.3594 Q63.6188,18.5156 64.1656,18.875 Z " fill="#000000"/><text fill="#000000" font-family="sans-serif" font-size="14" lengthAdjust="spacing" textLength="60" x="77.6" y="28.7969">DishType</text><line style="stroke:#181818;stroke-width:0.5;" x1="37.5" x2="149.5" y1="39" y2="39"/><text fill="#000000" font-family="sans-serif" font-size="14" lengthAdjust="spacing" textLength="102" x="42.5" y="58.1074">private Acronym</text><line style="stroke:#181818;stroke-width:0.5;" x1="37.5" x2="149.5" y1="65.6211" y2="65.6211"/></g><!--class DishTypeDesignation--><g id="elem_DishTypeDesignation"><rect codeLine="6" fill="#F1F1F1" height="66.6211" id="DishTypeDesignation" rx="2.5" ry="2.5" style="stroke:#181818;stroke-width:0.5;" width="173" x="7" y="134"/><ellipse cx="24.7" cy="150" fill="#ADD1B2" rx="11" ry="11" style="stroke:#181818;stroke-width:1.0;"/><path d="M27.4656,145.875 Q27.6219,145.6563 27.8094,145.5469 Q27.9969,145.4375 28.2156,145.4375 Q28.5906,145.4375 28.825,145.7031 Q29.0594,145.9531 29.0594,146.5625 L29.0594,148.0156 Q29.0594,148.625 28.825,148.8906 Q28.5906,149.1563 28.2156,149.1563 Q27.8719,149.1563 27.6688,148.9531 Q27.4656,148.7656 27.3563,148.25 Q27.3094,147.8906 27.1219,147.7031 Q26.7938,147.3281 26.1844,147.1094 Q25.575,146.8906 24.95,146.8906 Q24.1844,146.8906 23.5438,147.2188 Q22.9188,147.5469 22.4188,148.2969 Q21.9344,149.0469 21.9344,150.0781 L21.9344,151.1719 Q21.9344,152.4063 22.825,153.2344 Q23.7156,154.0469 25.3094,154.0469 Q26.2469,154.0469 26.9031,153.7969 Q27.2938,153.6406 27.7156,153.2031 Q27.9813,152.9375 28.1219,152.8594 Q28.2781,152.7813 28.4813,152.7813 Q28.8094,152.7813 29.0594,153.0469 Q29.325,153.2969 29.325,153.6406 Q29.325,153.9844 28.9813,154.3906 Q28.4813,154.9688 27.6844,155.2969 Q26.6063,155.75 25.3094,155.75 Q23.7938,155.75 22.5906,155.125 Q21.6063,154.625 20.9188,153.5625 Q20.2313,152.4844 20.2313,151.2031 L20.2313,150.0469 Q20.2313,148.7188 20.8406,147.5781 Q21.4656,146.4219 22.5594,145.8125 Q23.6531,145.1875 24.8875,145.1875 Q25.6219,145.1875 26.2625,145.3594 Q26.9188,145.5156 27.4656,145.875 Z " fill="#000000"/><text fill="#000000" font-family="sans-serif" font-size="14" lengthAdjust="spacing" textLength="135" x="39.3" y="155.7969">DishTypeDesignation</text><line style="stroke:#181818;stroke-width:0.5;" x1="8" x2="179" y1="166" y2="166"/><text fill="#000000" font-family="sans-serif" font-size="14" lengthAdjust="spacing" textLength="161" x="13" y="185.1074">private String designation</text><line style="stroke:#181818;stroke-width:0.5;" x1="8" x2="179" y1="192.6211" y2="192.6211"/></g><!--link DishType to DishTypeDesignation--><g id="link_DishType_DishTypeDesignation"><path codeLine="2" d="M93.5,74.02 C93.5,90.67 93.5,111.04 93.5,128.42 " fill="none" id="DishType-to-DishTypeDesignation" style="stroke:#181818;stroke-width:1.0;"/><polygon fill="#181818" points="93.5,133.71,97.5,124.71,93.5,128.71,89.5,124.71,93.5,133.71" style="stroke:#181818;stroke-width:1.0;"/></g><!--SRC=[SyaipWYfB4XLqDMrKt21SbnIYpFJyn9BClFpk99p4ekBuJ8ArLm5HPbbYIMf2ex9HVbvbRbSjMXAa3GZgGukAShCIrT8GJAvbWi0]--></g></svg>