<?xml version="1.0" encoding="us-ascii" standalone="no"?><svg xmlns="http://www.w3.org/2000/svg" xmlns:xlink="http://www.w3.org/1999/xlink" contentStyleType="text/css" height="226px" preserveAspectRatio="none" style="width:354px;height:226px;background:#FFFFFF;" version="1.1" viewBox="0 0 354 226" width="354px" zoomAndPan="magnify"><defs/><g><!--class DishType--><g id="elem_DishType"><rect codeLine="1" fill="#F1F1F1" height="66.6211" id="DishType" rx="2.5" ry="2.5" style="stroke:#181818;stroke-width:0.5;" width="92" x="218" y="7"/><ellipse cx="233" cy="23" fill="#ADD1B2" rx="11" ry="11" style="stroke:#181818;stroke-width:1.0;"/><path d="M235.7656,18.875 Q235.9219,18.6563 236.1094,18.5469 Q236.2969,18.4375 236.5156,18.4375 Q236.8906,18.4375 237.125,18.7031 Q237.3594,18.9531 237.3594,19.5625 L237.3594,21.0156 Q237.3594,21.625 237.125,21.8906 Q236.8906,22.1563 236.5156,22.1563 Q236.1719,22.1563 235.9688,21.9531 Q235.7656,21.7656 235.6563,21.25 Q235.6094,20.8906 235.4219,20.7031 Q235.0938,20.3281 234.4844,20.1094 Q233.875,19.8906 233.25,19.8906 Q232.4844,19.8906 231.8438,20.2188 Q231.2188,20.5469 230.7188,21.2969 Q230.2344,22.0469 230.2344,23.0781 L230.2344,24.1719 Q230.2344,25.4063 231.125,26.2344 Q232.0156,27.0469 233.6094,27.0469 Q234.5469,27.0469 235.2031,26.7969 Q235.5938,26.6406 236.0156,26.2031 Q236.2813,25.9375 236.4219,25.8594 Q236.5781,25.7813 236.7813,25.7813 Q237.1094,25.7813 237.3594,26.0469 Q237.625,26.2969 237.625,26.6406 Q237.625,26.9844 237.2813,27.3906 Q236.7813,27.9688 235.9844,28.2969 Q234.9063,28.75 233.6094,28.75 Q232.0938,28.75 230.8906,28.125 Q229.9063,27.625 229.2188,26.5625 Q228.5313,25.4844 228.5313,24.2031 L228.5313,23.0469 Q228.5313,21.7188 229.1406,20.5781 Q229.7656,19.4219 230.8594,18.8125 Q231.9531,18.1875 233.1875,18.1875 Q233.9219,18.1875 234.5625,18.3594 Q235.2188,18.5156 235.7656,18.875 Z " fill="#000000"/><text fill="#000000" font-family="sans-serif" font-size="14" lengthAdjust="spacing" textLength="60" x="247" y="28.7969">DishType</text><line style="stroke:#181818;stroke-width:0.5;" x1="219" x2="309" y1="39" y2="39"/><text fill="#000000" font-family="sans-serif" font-size="14" lengthAdjust="spacing" textLength="55" x="224" y="58.1074">Acronym</text><line style="stroke:#181818;stroke-width:0.5;" x1="219" x2="309" y1="65.6211" y2="65.6211"/></g><!--class administrator--><g id="elem_administrator"><rect codeLine="5" fill="#F1F1F1" height="48" id="administrator" rx="2.5" ry="2.5" style="stroke:#181818;stroke-width:0.5;" width="114" x="7" y="16.5"/><ellipse cx="22" cy="32.5" fill="#ADD1B2" rx="11" ry="11" style="stroke:#181818;stroke-width:1.0;"/><path d="M24.7656,28.375 Q24.9219,28.1563 25.1094,28.0469 Q25.2969,27.9375 25.5156,27.9375 Q25.8906,27.9375 26.125,28.2031 Q26.3594,28.4531 26.3594,29.0625 L26.3594,30.5156 Q26.3594,31.125 26.125,31.3906 Q25.8906,31.6563 25.5156,31.6563 Q25.1719,31.6563 24.9688,31.4531 Q24.7656,31.2656 24.6563,30.75 Q24.6094,30.3906 24.4219,30.2031 Q24.0938,29.8281 23.4844,29.6094 Q22.875,29.3906 22.25,29.3906 Q21.4844,29.3906 20.8438,29.7188 Q20.2188,30.0469 19.7188,30.7969 Q19.2344,31.5469 19.2344,32.5781 L19.2344,33.6719 Q19.2344,34.9063 20.125,35.7344 Q21.0156,36.5469 22.6094,36.5469 Q23.5469,36.5469 24.2031,36.2969 Q24.5938,36.1406 25.0156,35.7031 Q25.2813,35.4375 25.4219,35.3594 Q25.5781,35.2813 25.7813,35.2813 Q26.1094,35.2813 26.3594,35.5469 Q26.625,35.7969 26.625,36.1406 Q26.625,36.4844 26.2813,36.8906 Q25.7813,37.4688 24.9844,37.7969 Q23.9063,38.25 22.6094,38.25 Q21.0938,38.25 19.8906,37.625 Q18.9063,37.125 18.2188,36.0625 Q17.5313,34.9844 17.5313,33.7031 L17.5313,32.5469 Q17.5313,31.2188 18.1406,30.0781 Q18.7656,28.9219 19.8594,28.3125 Q20.9531,27.6875 22.1875,27.6875 Q22.9219,27.6875 23.5625,27.8594 Q24.2188,28.0156 24.7656,28.375 Z " fill="#000000"/><text fill="#000000" font-family="sans-serif" font-size="14" lengthAdjust="spacing" textLength="82" x="36" y="38.2969">administrator</text><line style="stroke:#181818;stroke-width:0.5;" x1="8" x2="120" y1="48.5" y2="48.5"/><line style="stroke:#181818;stroke-width:0.5;" x1="8" x2="120" y1="56.5" y2="56.5"/></g><!--class DishTypeDesignation--><g id="elem_DishTypeDesignation"><rect codeLine="8" fill="#F1F1F1" height="66.6211" id="DishTypeDesignation" rx="2.5" ry="2.5" style="stroke:#181818;stroke-width:0.5;" width="167" x="180.5" y="153"/><ellipse cx="195.5" cy="169" fill="#ADD1B2" rx="11" ry="11" style="stroke:#181818;stroke-width:1.0;"/><path d="M198.2656,164.875 Q198.4219,164.6563 198.6094,164.5469 Q198.7969,164.4375 199.0156,164.4375 Q199.3906,164.4375 199.625,164.7031 Q199.8594,164.9531 199.8594,165.5625 L199.8594,167.0156 Q199.8594,167.625 199.625,167.8906 Q199.3906,168.1563 199.0156,168.1563 Q198.6719,168.1563 198.4688,167.9531 Q198.2656,167.7656 198.1563,167.25 Q198.1094,166.8906 197.9219,166.7031 Q197.5938,166.3281 196.9844,166.1094 Q196.375,165.8906 195.75,165.8906 Q194.9844,165.8906 194.3438,166.2188 Q193.7188,166.5469 193.2188,167.2969 Q192.7344,168.0469 192.7344,169.0781 L192.7344,170.1719 Q192.7344,171.4063 193.625,172.2344 Q194.5156,173.0469 196.1094,173.0469 Q197.0469,173.0469 197.7031,172.7969 Q198.0938,172.6406 198.5156,172.2031 Q198.7813,171.9375 198.9219,171.8594 Q199.0781,171.7813 199.2813,171.7813 Q199.6094,171.7813 199.8594,172.0469 Q200.125,172.2969 200.125,172.6406 Q200.125,172.9844 199.7813,173.3906 Q199.2813,173.9688 198.4844,174.2969 Q197.4063,174.75 196.1094,174.75 Q194.5938,174.75 193.3906,174.125 Q192.4063,173.625 191.7188,172.5625 Q191.0313,171.4844 191.0313,170.2031 L191.0313,169.0469 Q191.0313,167.7188 191.6406,166.5781 Q192.2656,165.4219 193.3594,164.8125 Q194.4531,164.1875 195.6875,164.1875 Q196.4219,164.1875 197.0625,164.3594 Q197.7188,164.5156 198.2656,164.875 Z " fill="#000000"/><text fill="#000000" font-family="sans-serif" font-size="14" lengthAdjust="spacing" textLength="135" x="209.5" y="174.7969">DishTypeDesignation</text><line style="stroke:#181818;stroke-width:0.5;" x1="181.5" x2="346.5" y1="185" y2="185"/><text fill="#000000" font-family="sans-serif" font-size="14" lengthAdjust="spacing" textLength="75" x="186.5" y="204.1074">Designation</text><line style="stroke:#181818;stroke-width:0.5;" x1="181.5" x2="346.5" y1="211.6211" y2="211.6211"/></g><!--link DishType to DishTypeDesignation--><g id="link_DishType_DishTypeDesignation"><path codeLine="12" d="M264,74.18 C264,97.74 264,129.42 264,152.95 " fill="none" id="DishType-DishTypeDesignation" style="stroke:#181818;stroke-width:1.0;"/><polygon fill="#000000" points="269,118.6455,271.9389,109.6004,266.0611,109.6004,269,118.6455" style="stroke:#000000;stroke-width:1.0;"/><text fill="#000000" font-family="sans-serif" font-size="13" lengthAdjust="spacing" textLength="59" x="278" y="119.0283">must have</text><text fill="#000000" font-family="sans-serif" font-size="13" lengthAdjust="spacing" textLength="7" x="256.3766" y="95.7813">1</text><text fill="#000000" font-family="sans-serif" font-size="13" lengthAdjust="spacing" textLength="7" x="256.3109" y="141.7657">1</text></g><!--link administrator to DishType--><g id="link_administrator_DishType"><path codeLine="13" d="M121.04,40.5 C151.76,40.5 189.14,40.5 217.98,40.5 " fill="none" id="administrator-DishType" style="stroke:#181818;stroke-width:1.0;"/><polygon fill="#000000" points="148.5,28.1455,139.4549,25.2066,139.4549,31.0844,148.5,28.1455" style="stroke:#000000;stroke-width:1.0;"/><text fill="#000000" font-family="sans-serif" font-size="13" lengthAdjust="spacing" textLength="47" x="152.5" y="33.5283">create a</text><text fill="#000000" font-family="sans-serif" font-size="13" lengthAdjust="spacing" textLength="7" x="129.1751" y="36.4057">1</text><text fill="#000000" font-family="sans-serif" font-size="13" lengthAdjust="spacing" textLength="5" x="204.9439" y="36.176">*</text></g><!--SRC=[Iyv9B2vMSCaipWYfB4Yjvb800iVaeloyobokMYwkPB1qOafkPbvcSKbHOab-aK8rGWAkqIMrE3CzBx4aCpzF0M88iWX80qobWfAXaeAkBfZ2fjjAmKuXjxIuH24ZiInLWGlLQh1U1IKjX5QW-kIYrCIIL8L41Jik0000]--></g></svg>